<?xml version="1.0" standalone="no"?>
<!DOCTYPE svg PUBLIC "-//W3C//DTD SVG 20010904//EN"
 "http://www.w3.org/TR/2001/REC-SVG-20010904/DTD/svg10.dtd">
<svg version="1.0" xmlns="http://www.w3.org/2000/svg"
 width="295.000000pt" height="295.000000pt" viewBox="0 0 295.000000 295.000000"
 preserveAspectRatio="xMidYMid meet">
<metadata>
Created by potrace 1.14, written by Peter Selinger 2001-2017
</metadata>
<g transform="translate(0.000000,295.000000) scale(0.100000,-0.100000)"
fill="#000000" stroke="none">
<path d="M965 2676 c-42 -18 -57 -40 -60 -87 -2 -34 2 -44 31 -67 80 -67 187
16 143 111 -20 44 -68 62 -114 43z m77 -62 c14 -29 -5 -79 -26 -71 -7 3 -18 1
-23 -4 -16 -16 -55 39 -47 65 15 47 76 54 96 10z"/>
<path d="M1923 2673 c-32 -16 -53 -49 -53 -84 0 -31 32 -79 55 -84 44 -10 51
-9 82 4 29 12 41 29 50 71 14 70 -66 126 -134 93z m68 -39 c25 -15 31 -44 14
-70 -31 -48 -106 -16 -89 38 13 43 39 54 75 32z"/>
<path d="M1444 2629 c-26 -10 -67 -55 -69 -77 0 -9 -4 -23 -9 -30 -4 -7 -2
-12 4 -12 6 0 8 -4 5 -10 -3 -5 1 -20 9 -32 61 -93 206 -52 206 57 0 70 -82
128 -146 104z m97 -70 c6 -12 8 -36 5 -54 -13 -65 -108 -66 -130 -2 -27 76 87
127 125 56z"/>
<path d="M670 2503 c-52 -49 -45 -119 16 -148 98 -46 181 70 105 146 -38 38
-80 39 -121 2z m92 -30 c36 -32 9 -97 -37 -88 -11 2 -23 4 -26 4 -12 2 -26 47
-19 65 6 18 30 33 54 35 5 1 18 -6 28 -16z"/>
<path d="M2177 2510 c-36 -28 -48 -69 -32 -108 26 -59 106 -76 151 -30 80 81
-30 208 -119 138z m92 -41 c31 -34 11 -81 -34 -81 -48 0 -70 49 -38 84 21 24
48 23 72 -3z"/>
<path d="M1087 2488 c-13 -7 -16 -18 -12 -46 10 -84 18 -122 25 -122 4 0 10
-11 14 -23 15 -60 162 -197 210 -197 9 0 16 -4 16 -8 0 -4 8 -8 18 -9 9 -1 31
-4 47 -8 17 -4 36 -7 43 -7 6 -1 12 -13 12 -27 0 -26 -14 -35 -229 -156 -20
-11 -82 -47 -139 -79 -99 -57 -103 -58 -122 -41 -14 12 -17 22 -10 30 16 20
36 127 35 187 -2 55 -37 167 -61 198 -55 67 -73 86 -107 111 -42 30 -61 29
-72 -4 -4 -12 -8 -24 -9 -27 -17 -37 -26 -62 -25 -68 1 -4 0 -9 -1 -12 -1 -3
-3 -34 -5 -69 -3 -73 14 -145 45 -198 12 -21 19 -45 16 -57 -4 -18 -13 -21
-63 -23 -78 -2 -103 -6 -103 -15 0 -4 -7 -8 -15 -8 -29 0 -96 -41 -146 -89
-27 -26 -49 -51 -49 -56 0 -4 -7 -13 -16 -19 -33 -25 7 -55 106 -81 49 -13
156 -12 205 3 78 22 125 50 183 108 54 55 72 64 89 42 5 -8 8 -121 7 -263 -2
-306 0 -282 -25 -290 -19 -6 -36 6 -73 56 -18 25 -110 84 -148 94 -5 2 -9 3
-10 5 -18 14 -178 19 -233 6 -16 -4 -49 -16 -71 -27 -53 -25 -50 -40 26 -117
52 -53 135 -105 168 -105 6 0 12 -3 12 -6 0 -6 11 -7 100 -15 19 -2 41 -4 48
-5 18 -2 15 -26 -13 -80 -13 -27 -21 -51 -18 -55 4 -3 2 -6 -3 -6 -12 0 -17
-43 -17 -136 0 -111 53 -225 88 -190 7 6 29 24 49 40 88 69 146 202 140 321
-2 39 -10 90 -19 114 -8 24 -15 49 -15 57 0 25 38 25 79 -1 22 -14 45 -25 51
-25 5 0 10 -5 10 -11 0 -5 5 -7 10 -4 6 3 10 1 10 -5 0 -6 4 -9 9 -6 5 4 11 3
13 -1 1 -5 19 -17 38 -27 19 -11 53 -31 75 -45 22 -14 42 -26 45 -26 3 0 40
-20 82 -45 67 -39 78 -49 78 -73 0 -15 -3 -26 -7 -25 -7 2 -89 -12 -103 -17
-3 -1 -18 -7 -33 -13 -16 -7 -30 -12 -33 -12 -16 0 -144 -122 -144 -137 0 -7
-5 -13 -10 -13 -6 0 -9 -3 -8 -7 1 -5 -5 -22 -15 -39 -19 -37 -29 -83 -31
-139 l-1 -40 45 1 c65 2 100 7 100 15 0 4 13 9 28 12 44 9 133 81 177 143 44
62 71 75 85 41 14 -36 53 -83 100 -121 25 -20 50 -40 56 -45 9 -7 67 -29 104
-39 8 -2 38 -5 65 -5 49 -2 50 -1 51 28 2 48 -20 127 -51 183 -59 108 -197
199 -311 205 -14 1 -21 8 -22 27 -1 22 11 32 97 83 55 31 104 57 109 57 6 0
12 4 14 8 4 10 109 71 122 70 5 0 12 4 15 9 7 11 100 63 112 63 4 0 15 -7 24
-16 14 -14 14 -19 2 -38 -30 -46 -40 -177 -20 -257 25 -96 128 -230 190 -245
30 -8 29 -9 54 62 24 66 32 174 17 231 -5 21 -10 44 -10 51 -1 6 -5 12 -10 12
-4 0 -8 8 -8 18 0 9 -7 26 -15 36 -18 24 -19 56 -2 57 6 1 32 3 57 5 77 7 74
6 173 48 50 20 157 129 157 159 0 17 -11 27 -42 41 -57 25 -78 28 -179 30 -80
1 -91 -2 -161 -37 -52 -25 -91 -54 -125 -91 -45 -49 -51 -52 -69 -39 -18 13
-19 28 -19 276 0 238 1 263 17 279 18 18 21 16 75 -42 31 -33 58 -58 61 -56 2
3 11 -1 18 -9 8 -7 40 -23 71 -35 82 -32 190 -34 278 -6 6 2 13 4 18 5 4 0 20
7 36 16 38 19 33 38 -30 109 -33 36 -71 66 -112 86 -71 35 -92 40 -165 45 -73
4 -82 15 -55 68 36 68 44 97 48 173 4 73 -14 174 -37 201 -6 7 -7 13 -3 13 4
0 2 7 -5 15 -11 13 -16 13 -44 -2 -78 -40 -152 -141 -178 -243 -19 -71 -14
-174 10 -237 l19 -51 -24 -11 c-20 -9 -30 -7 -63 14 -22 14 -44 25 -49 25 -5
0 -11 4 -13 8 -1 4 -34 25 -73 46 -38 21 -73 43 -76 48 -3 5 -8 8 -10 6 -6 -4
-187 101 -194 113 -9 14 3 46 18 47 10 0 25 3 82 16 6 1 31 12 56 25 122 58
206 179 224 319 7 60 -7 74 -64 61 -20 -4 -37 -8 -38 -9 -2 0 -4 0 -5 -1 -2 0
-13 -2 -26 -5 -74 -14 -224 -133 -238 -190 -3 -13 -10 -21 -15 -18 -5 3 -9 1
-9 -4 0 -21 -30 -6 -41 21 -18 43 -117 138 -172 165 -46 23 -65 29 -122 38
-16 3 -35 7 -41 8 -5 2 -18 0 -27 -6z m160 -70 c49 -23 142 -106 162 -144 10
-20 7 -23 -36 -33 -25 -7 -64 -21 -86 -32 l-39 -21 -35 34 c-39 38 -88 134
-98 192 l-6 39 45 -6 c25 -4 67 -17 93 -29z m595 -8 c-4 -50 -46 -135 -89
-181 l-38 -40 -58 26 c-32 14 -69 26 -83 27 -36 3 -30 29 18 83 61 69 171 127
228 122 22 -2 25 -6 22 -37z m-994 -192 c44 -43 87 -121 98 -175 5 -26 3 -34
-12 -39 -11 -4 -43 -27 -72 -52 -30 -25 -57 -41 -62 -36 -22 23 -47 128 -45
192 2 79 20 152 38 152 7 0 32 -19 55 -42z m1345 -5 c21 -71 15 -187 -13 -250
-12 -29 -25 -53 -29 -53 -3 0 -26 19 -50 41 -24 22 -54 45 -68 50 -21 8 -24
13 -18 42 10 48 28 97 36 97 4 0 10 9 14 20 8 25 84 100 101 100 7 0 19 -21
27 -47z m-580 -23 c52 -19 68 -40 31 -40 -8 0 -14 -4 -14 -9 0 -13 -89 -33
-150 -33 -57 0 -92 7 -145 31 l-49 22 28 14 c89 47 200 52 299 15z m-98 -228
c17 -10 55 -32 85 -49 30 -17 96 -54 145 -83 50 -29 110 -64 135 -77 25 -14
50 -31 56 -38 11 -14 14 -528 3 -539 -7 -7 -342 -201 -418 -242 l-43 -24 -132
77 c-72 42 -151 87 -175 101 -65 36 -145 83 -151 89 -10 9 -5 525 5 538 5 7
75 50 155 95 80 46 163 94 185 106 88 51 110 63 115 64 3 0 19 -8 35 -18z
m-560 -34 c-7 -85 -45 -163 -110 -229 -52 -53 -85 -68 -85 -39 0 39 22 120 32
120 6 0 8 3 5 7 -22 21 113 175 160 183 1 0 0 -19 -2 -42z m1098 12 c13 0 76
-76 101 -120 24 -45 31 -68 43 -143 l6 -38 -27 12 c-14 7 -26 16 -26 20 0 4
-8 10 -17 13 -10 3 -29 23 -43 43 -14 21 -30 44 -37 50 -15 17 -44 106 -45
140 -1 55 0 58 20 40 10 -10 22 -17 25 -17z m-1316 -184 c-6 -23 -10 -61 -11
-86 -1 -62 -15 -70 -131 -74 -76 -3 -165 19 -165 41 0 16 99 113 116 113 3 0
24 9 47 19 51 23 71 28 118 27 l36 0 -10 -40z m1598 26 c50 -14 119 -58 163
-102 39 -41 40 -56 5 -65 -16 -5 -35 -10 -43 -13 -31 -9 -180 -5 -193 7 -8 6
-17 8 -20 4 -4 -3 -7 10 -7 30 0 21 -1 40 -1 45 -1 4 -7 30 -14 58 l-12 52 41
-3 c23 -1 59 -7 81 -13z m-1655 -493 c22 -7 40 -15 41 -18 0 -3 2 -31 4 -61 1
-30 8 -67 14 -82 6 -16 9 -28 8 -29 -35 -13 -114 3 -181 37 -53 27 -128 89
-118 98 3 3 0 6 -6 6 -7 0 -12 6 -12 14 0 35 170 59 250 35z m1801 -5 c27 -9
49 -22 49 -28 0 -6 -13 -26 -30 -44 -16 -18 -30 -31 -30 -28 0 3 -9 -3 -19
-13 -25 -25 -107 -62 -146 -66 -16 -2 -30 -5 -30 -6 0 -1 -14 -2 -31 -3 l-31
-2 13 48 c15 60 14 51 14 97 0 34 3 39 33 49 50 16 153 14 208 -4z m-1675 -56
c81 -63 131 -149 148 -253 10 -61 -8 -60 -71 2 -67 65 -107 140 -118 221 -8
59 -2 63 41 30z m1389 -29 c-3 -29 -15 -75 -28 -103 -28 -59 -97 -140 -137
-161 l-28 -14 4 41 c11 113 73 220 160 275 31 19 33 16 29 -38z m-4 -300 c12
-38 18 -76 15 -84 -3 -8 -1 -15 5 -15 6 0 7 -4 4 -10 -3 -5 -8 -24 -10 -42 -6
-48 -28 -118 -37 -118 -5 0 -28 18 -51 40 -45 40 -92 122 -103 176 -5 27 -2
33 38 57 23 16 54 41 68 56 33 37 45 27 71 -60z m-1335 45 c22 -20 52 -42 68
-51 25 -13 27 -19 22 -46 -14 -71 -87 -181 -137 -208 -15 -8 -21 -4 -35 22
-19 37 -26 166 -12 219 13 46 38 100 48 100 4 0 25 -16 46 -36z m709 -167 c46
-11 104 -40 99 -49 -6 -9 -45 -27 -74 -33 -8 -2 -15 -4 -15 -5 0 -15 -185 -13
-201 3 -4 4 -15 7 -24 7 -9 0 -27 8 -39 19 -22 19 -19 24 24 37 6 2 30 9 55
17 42 13 127 15 175 4z m-268 -97 c21 -11 45 -20 54 -20 8 0 19 -3 23 -7 4 -5
12 -9 17 -9 5 -1 14 -2 19 -3 16 -2 -5 -36 -53 -88 -45 -49 -138 -98 -204
-108 -34 -5 -43 -4 -43 7 0 20 31 122 39 128 4 3 11 15 16 27 14 32 68 92 83
93 6 0 29 -9 49 -20z m453 -12 c14 -17 30 -36 35 -42 20 -21 55 -117 61 -164
2 -22 0 -23 -39 -17 -69 11 -148 54 -203 111 -28 29 -54 62 -57 74 -3 11 -1
18 3 15 9 -6 119 32 135 46 17 17 40 9 65 -23z"/>
<path d="M1083 1544 c-3 -7 -5 -58 -6 -113 -2 -78 1 -102 12 -106 20 -8 25 1
27 43 1 20 2 40 3 43 0 3 17 5 36 3 67 -5 108 75 61 121 -9 9 -16 13 -16 9 0
-3 -6 -2 -12 4 -18 14 -99 11 -105 -4z m101 -30 c9 -8 16 -26 16 -39 0 -20 -7
-25 -36 -31 -40 -7 -56 6 -49 41 2 11 4 26 4 33 1 17 47 15 65 -4z"/>
<path d="M1578 1553 c-10 -2 -18 -9 -18 -14 0 -6 -4 -8 -9 -5 -15 10 -28 -39
-26 -102 2 -74 22 -102 78 -107 38 -4 87 24 87 50 0 7 8 19 17 26 15 12 16 12
10 -3 -10 -27 46 -68 88 -65 54 5 98 53 70 77 -12 10 -17 7 -26 -14 -14 -31
-48 -42 -78 -26 -18 9 -21 20 -21 69 0 43 5 62 18 74 27 24 45 21 76 -13 30
-34 50 -32 37 3 -11 31 -65 61 -96 53 -45 -12 -72 -47 -71 -93 1 -24 -3 -43
-9 -43 -5 0 -11 21 -11 46 -1 30 -8 52 -20 65 -20 20 -67 31 -96 22z m65 -36
c12 -8 18 -30 21 -70 3 -66 -15 -99 -55 -95 -26 3 -49 19 -43 30 2 4 0 9 -5
12 -4 3 -7 29 -5 57 4 69 43 99 87 66z"/>
<path d="M1263 1543 c-9 -3 -9 -14 1 -46 7 -23 13 -45 14 -49 1 -5 2 -9 3 -10
2 -8 10 -46 13 -63 5 -28 17 -55 25 -55 15 1 28 16 25 33 -1 9 2 17 6 17 5 0
7 9 5 20 -2 11 0 20 6 20 5 0 8 3 8 8 -3 17 2 32 10 32 5 0 8 -6 8 -12 -4 -36
17 -99 34 -108 10 -6 20 -8 20 -5 1 3 2 8 3 13 3 16 28 108 33 122 3 8 8 32
10 53 3 27 0 37 -10 37 -12 0 -27 -30 -31 -62 -1 -3 -4 -9 -8 -13 -4 -4 -4
-13 -1 -21 3 -8 0 -14 -7 -14 -6 0 -8 -6 -4 -12 4 -7 3 -10 -1 -5 -5 4 -10 18
-12 30 -9 55 -25 97 -38 97 -13 0 -20 -18 -41 -103 -3 -15 -9 -26 -11 -23 -7
6 -25 78 -24 98 0 18 -17 28 -36 21z"/>
<path d="M505 2086 c-40 -18 -63 -45 -68 -81 -11 -84 74 -153 152 -123 22 8
54 42 57 61 1 4 2 8 4 10 8 10 7 46 -4 71 -26 60 -85 86 -141 62z m65 -40 c0
-5 3 -6 6 -3 4 3 16 -5 26 -19 34 -42 7 -101 -50 -108 -60 -7 -96 57 -62 109
11 17 20 26 20 21 0 -6 5 -5 11 1 14 14 49 13 49 -1z"/>
<path d="M2360 2079 c-34 -21 -60 -71 -54 -104 12 -64 41 -93 99 -99 85 -9
142 72 108 155 -23 58 -97 82 -153 48z m109 -55 c15 -19 18 -36 12 -74 -2 -12
-57 -37 -73 -35 -33 6 -64 39 -63 67 4 70 81 96 124 42z"/>
<path d="M214 1685 c-39 -16 -54 -36 -59 -77 -6 -48 36 -99 83 -100 65 -2 104
41 97 106 -7 56 -69 93 -121 71z m77 -57 c9 -60 -17 -92 -63 -76 -15 5 -30 19
-34 30 -7 25 13 66 35 71 19 4 60 -12 62 -25z"/>
<path d="M2690 1688 c-60 -22 -82 -74 -55 -132 15 -31 30 -41 81 -51 6 -2 25
4 42 12 61 29 66 124 9 158 -39 24 -46 25 -77 13z m76 -75 c4 -15 0 -31 -11
-43 -38 -42 -103 -9 -89 45 13 50 88 49 100 -2z"/>
<path d="M189 1360 c-51 -43 -50 -104 3 -141 39 -28 83 -27 113 3 84 85 -25
215 -116 138z m98 -36 c13 -18 10 -49 -8 -70 -16 -19 -69 -18 -69 1 0 8 -4 15
-10 15 -16 0 -12 34 7 57 19 24 60 22 80 -3z"/>
<path d="M2678 1373 c-66 -26 -75 -107 -18 -152 30 -24 80 -35 80 -18 0 4 4 6
9 3 15 -10 53 42 56 76 4 55 -16 83 -75 101 -9 2 -32 -2 -52 -10z m59 -37 c30
-10 38 -42 18 -72 -21 -33 -64 -29 -84 7 -13 23 -12 28 5 51 19 26 23 27 61
14z"/>
<path d="M501 1007 c-54 -27 -78 -91 -56 -144 37 -87 163 -87 200 0 39 92 -57
189 -144 144z m86 -45 c49 -38 29 -113 -34 -125 -39 -7 -86 41 -77 80 9 38 13
43 38 53 32 13 49 11 73 -8z"/>
<path d="M2363 1004 c-37 -18 -64 -75 -56 -117 14 -70 104 -111 164 -75 69 42
69 150 0 191 -36 21 -67 21 -108 1z m89 -33 c13 -2 35 -55 32 -76 -7 -48 -85
-73 -117 -37 -48 53 -8 127 63 116 8 -1 18 -3 22 -3z"/>
<path d="M695 547 c-33 -16 -57 -56 -57 -95 0 -28 7 -43 30 -63 58 -52 152
-13 152 63 0 35 -28 88 -47 88 -20 0 -27 1 -43 9 -8 4 -24 3 -35 -2z m69 -53
c33 -32 14 -89 -29 -89 -52 0 -79 51 -45 85 24 24 53 26 74 4z"/>
<path d="M2167 520 c-43 -46 -38 -103 13 -137 93 -64 192 56 115 140 -36 38
-90 37 -128 -3z m94 -20 c20 -11 26 -54 11 -77 -12 -19 -55 -22 -74 -5 -23 19
-23 50 -1 74 18 20 36 23 64 8z"/>
<path d="M1435 471 c-41 -18 -60 -51 -60 -103 0 -44 4 -53 34 -80 30 -27 39
-30 79 -25 59 6 93 40 99 98 4 37 0 49 -24 77 -30 36 -88 50 -128 33z m95 -53
c42 -45 12 -118 -50 -118 -57 0 -93 77 -52 112 38 33 74 35 102 6z"/>
<path d="M970 390 c-8 -5 -17 -7 -21 -4 -4 2 -16 -14 -27 -37 -16 -31 -18 -47
-11 -72 12 -43 30 -58 77 -64 36 -5 45 -2 72 25 18 19 30 41 30 57 0 33 -28
83 -51 90 -36 12 -56 13 -69 5z m55 -46 c43 -28 23 -94 -27 -94 -52 0 -72 58
-31 89 31 25 28 25 58 5z"/>
<path d="M1906 374 c-71 -66 -16 -178 78 -160 47 9 70 38 69 88 -2 78 -92 123
-147 72z m94 -37 c24 -21 25 -44 3 -69 -32 -35 -92 -14 -93 34 0 21 37 57 56
54 8 -1 24 -10 34 -19z"/>
</g>
</svg>
