<svg xmlns="http://www.w3.org/2000/svg" width="298.21" height="173.7" viewBox="0 0 298.21 173.7"><defs><style>.a{fill:#fff;}</style></defs><title>XYZ-logo-white</title><path class="a" d="M298.64,43.68c0-22.74-18.5-42.53-41.24-42.53h-182A42.31,42.31,0,0,0,35.34,56.61,42.7,42.7,0,0,0,14.12,67.89C5.91,76,1.39,87.34,1.39,99.82s4.67,24,13.14,32.12c5.66,5.41,15.63,11.86,31,11.86H74.81a42.45,42.45,0,0,0,21.91-6.08,41.54,41.54,0,0,0,41.64,37.13,62.93,62.93,0,0,0,42.19-16,80.25,80.25,0,0,0,16.29-20.28,40.64,40.64,0,0,0,17.45,3.92h44.4a41,41,0,0,0,40.92-40.92ZM45.53,110.8c-6.76,0-10.62-3.38-10.62-10.46,0-7.24,3.86-10.78,10.62-10.78S56,93.11,56,100.35C56,107.43,52.29,110.8,45.53,110.8Zm74.65,0a8.75,8.75,0,0,1-6.92-3.38c-5-6.92-15.77-22.2-15.77-22.2s-10.78,15.29-15.77,22.2a8.76,8.76,0,0,1-6.92,3.38,8.73,8.73,0,0,1-6.92-14L87.35,72.35,68.53,49.19a8.44,8.44,0,0,1-1.77-5.31,8.65,8.65,0,0,1,8.69-8.69,8.77,8.77,0,0,1,6.92,3.38L97.49,59.32l15.12-20.75a8.77,8.77,0,0,1,6.92-3.38,8.65,8.65,0,0,1,8.69,8.69,8.44,8.44,0,0,1-1.77,5.31L107.63,72.35l19.46,24.46A8.73,8.73,0,0,1,120.18,110.8Zm81.4-63.55-29.93,67.57c-7.08,15.77-17.21,27-33.3,27a8.05,8.05,0,1,1,0-16.09c10.29,0,15.12-8.21,20.43-21.4L134,47.25a9,9,0,0,1-.64-3.38,8.65,8.65,0,0,1,8.69-8.69,8.47,8.47,0,0,1,8,5.47l17.7,44.73,17.7-44.73a8.48,8.48,0,0,1,8-5.47,8.65,8.65,0,0,1,8.69,8.69A9,9,0,0,1,201.58,47.25Zm57.11,62.26h-44.4a7.48,7.48,0,0,1-7.4-7.4,7.3,7.3,0,0,1,1.77-4.83l19.17-25.68h0L240,55.34,243.24,51H216.06a7.24,7.24,0,1,1,0-14.48H257.4a7.77,7.77,0,0,1,6,12.71L229.41,94.71h29.28A7.4,7.4,0,0,1,258.69,109.52Z" transform="translate(-1.39 -1.15)"/></svg>